<svg data-v-423bf9ae="" xmlns="http://www.w3.org/2000/svg" viewBox="0 0 485 90" class="iconLeft"><!----><!----><defs data-v-423bf9ae=""><linearGradient data-v-423bf9ae="" gradientTransform="rotate(25)" id="ab5735b6-5920-4100-bd07-14527a5e3bb9" x1="0%" y1="0%" x2="100%" y2="0%"><stop data-v-423bf9ae="" offset="0%" style="stop-color: rgb(242, 223, 12); stop-opacity: 1;"></stop><stop data-v-423bf9ae="" offset="100%" style="stop-color: rgb(245, 166, 35); stop-opacity: 1;"></stop></linearGradient></defs><g data-v-423bf9ae="" id="84069b04-3110-4839-aab8-bb0379f29f84" fill="url(#ab5735b6-5920-4100-bd07-14527a5e3bb9)" transform="matrix(4.507888986286435,0,0,4.507888986286435,109.6844411199969,-2.3102934415148653)"><path d="M8.33 14.35L5.68 4.58L2.72 4.58L0.07 14.35L2.20 14.35L2.80 12.00L5.47 12.00L6.09 14.35ZM5.15 10.30L3.14 10.30L4.09 6.61L4.20 6.61ZM12.52 14.52C14.66 14.52 15.88 13.57 15.88 12.07C15.88 10.70 14.85 10.15 13.55 9.95L12.40 9.77C11.84 9.69 11.51 9.56 11.51 9.14C11.51 8.67 11.93 8.41 12.71 8.41C13.65 8.41 14.34 8.78 14.76 9.24L15.79 8.06C15.19 7.36 14.20 6.96 12.78 6.96C10.70 6.96 9.48 7.87 9.48 9.38C9.48 10.75 10.50 11.30 11.79 11.49L12.95 11.68C13.51 11.76 13.85 11.89 13.85 12.29C13.85 12.81 13.34 13.06 12.53 13.06C11.56 13.06 10.81 12.70 10.25 12.08L9.09 13.16C9.67 14 10.92 14.52 12.52 14.52ZM17.63 17.15L19.70 17.15L19.70 13.03L19.80 13.03C20.16 13.90 20.78 14.52 21.94 14.52C23.53 14.52 24.65 13.36 24.65 10.74C24.65 8.12 23.53 6.96 21.94 6.96C20.78 6.96 20.16 7.57 19.80 8.44L19.70 8.44L19.70 7.13L17.63 7.13ZM21.04 12.91C20.31 12.91 19.70 12.56 19.70 11.80L19.70 9.67C19.70 8.92 20.31 8.57 21.04 8.57C21.97 8.57 22.50 9.17 22.50 10.18L22.50 11.30C22.50 12.31 21.97 12.91 21.04 12.91ZM29.85 6.20C30.77 6.20 31.09 5.77 31.09 5.22L31.09 4.82C31.09 4.26 30.77 3.84 29.85 3.84C28.92 3.84 28.60 4.26 28.60 4.82L28.60 5.22C28.60 5.77 28.92 6.20 29.85 6.20ZM26.52 14.35L33.01 14.35L33.01 12.74L30.88 12.74L30.88 7.13L26.52 7.13L26.52 8.74L28.81 8.74L28.81 12.74L26.52 12.74ZM34.64 14.35L40.75 14.35L40.75 12.74L38.37 12.74L38.37 10.60C38.37 9.73 38.91 9.03 39.93 9.03L41.47 9.03L41.47 7.13L40.78 7.13C39.35 7.13 38.74 8.11 38.47 9.17L38.37 9.17L38.37 7.13L34.64 7.13L34.64 8.74L36.30 8.74L36.30 12.74L34.64 12.74ZM50.01 14.35L50.01 12.85L49.21 12.85L49.21 9.69C49.21 7.87 48.03 6.96 46.06 6.96C44.45 6.96 43.40 7.56 42.92 8.37L44.06 9.38C44.45 8.85 44.95 8.47 45.82 8.47C46.77 8.47 47.14 8.92 47.14 9.77L47.14 10.14L45.98 10.14C43.86 10.14 42.73 10.85 42.73 12.36C42.73 13.72 43.65 14.52 45.05 14.52C46.16 14.52 47.00 14.01 47.25 13.08L47.32 13.08C47.40 13.89 47.96 14.35 48.82 14.35ZM45.84 13.16C45.18 13.16 44.76 12.89 44.76 12.39L44.76 12.11C44.76 11.55 45.21 11.26 46.03 11.26L47.14 11.26L47.14 12.12C47.14 12.80 46.56 13.16 45.84 13.16ZM57.83 14.35L57.83 12.74L55.02 12.74L55.02 8.74L57.83 8.74L57.83 7.13L55.02 7.13L55.02 4.58L53.12 4.58L53.12 6.27C53.12 6.92 52.88 7.13 52.26 7.13L50.99 7.13L50.99 8.74L52.95 8.74L52.95 12.26C52.95 13.48 53.66 14.35 55.16 14.35ZM63.45 6.20C64.37 6.20 64.69 5.77 64.69 5.22L64.69 4.82C64.69 4.26 64.37 3.84 63.45 3.84C62.52 3.84 62.20 4.26 62.20 4.82L62.20 5.22C62.20 5.77 62.52 6.20 63.45 6.20ZM60.12 14.35L66.61 14.35L66.61 12.74L64.48 12.74L64.48 7.13L60.12 7.13L60.12 8.74L62.41 8.74L62.41 12.74L60.12 12.74ZM71.40 14.52C73.65 14.52 75.03 13.08 75.03 10.74C75.03 8.40 73.65 6.96 71.40 6.96C69.15 6.96 67.77 8.40 67.77 10.74C67.77 13.08 69.15 14.52 71.40 14.52ZM71.40 12.98C70.48 12.98 69.92 12.38 69.92 11.31L69.92 10.16C69.92 9.10 70.48 8.50 71.40 8.50C72.32 8.50 72.88 9.10 72.88 10.16L72.88 11.31C72.88 12.38 72.32 12.98 71.40 12.98ZM78.58 14.35L78.58 9.60C78.58 8.90 79.21 8.55 79.86 8.55C80.67 8.55 81.07 9.04 81.07 9.95L81.07 14.35L83.15 14.35L83.15 9.67C83.15 7.92 82.18 6.96 80.79 6.96C79.63 6.96 78.99 7.63 78.67 8.44L78.58 8.44L78.58 7.13L76.51 7.13L76.51 14.35Z"></path></g><defs data-v-423bf9ae=""><linearGradient data-v-423bf9ae="" gradientTransform="rotate(25)" id="1e6d4379-0449-436d-b51c-dc3896589a37" x1="0%" y1="0%" x2="100%" y2="0%"><stop data-v-423bf9ae="" offset="0%" style="stop-color: rgb(245, 166, 35); stop-opacity: 1;"></stop><stop data-v-423bf9ae="" offset="100%" style="stop-color: rgb(242, 223, 12); stop-opacity: 1;"></stop></linearGradient></defs><g data-v-423bf9ae="" id="bd662579-0b14-4d57-bce0-08fbceaa8f89" transform="matrix(1.004139224418283,0,0,1.004139224418283,-5.021433216312062,-5.023154820827436)" stroke="none" fill="url(#1e6d4379-0449-436d-b51c-dc3896589a37)"><path d="M70.034 60.318c0 5.548-2.338 10.942-6.584 15.188-5.392 5.392-13.366 8.485-21.877 8.485-6.876 0-16.708-2.899-25.086-10.11a6.266 6.266 0 0 0-4.093-1.526 6.268 6.268 0 0 0-4.459 10.676c.906.922 1.949 1.733 2.98 2.528 11.643 8.967 24.794 9.664 28.547 9.664 12.798 0 23.552-3.991 31.103-11.541C78.516 75.73 81.35 65.6 81.35 58.772c0-7.925-2.856-15.324-7.833-20.302-3.826-3.825-8.66-5.932-13.614-5.932-5.224 0-10.053 1.952-13.599 5.498a17.825 17.825 0 0 0-2.56 3.227c1.86-1.188 4.15-1.808 6.737-1.808 10.782 0 19.553 9.36 19.553 20.863z"></path><path d="M59.903 30.367c5.548 0 10.942 2.339 15.188 6.585 5.393 5.392 8.486 13.365 8.486 21.876 0 6.876-2.899 16.708-10.111 25.086a6.266 6.266 0 0 0 4.743 10.36c1.71 0 3.276-.697 4.407-1.808.922-.906 1.734-1.949 2.528-2.98 8.967-11.643 9.664-24.794 9.664-28.547 0-12.797-3.99-23.552-11.54-31.102-7.953-7.953-18.082-10.786-24.91-10.786-7.925 0-15.324 2.855-20.303 7.833-3.825 3.827-5.932 8.66-5.932 13.615 0 5.223 1.953 10.053 5.498 13.598.994.994 2.078 1.85 3.228 2.56-1.19-1.86-1.809-4.15-1.809-6.736 0-10.783 9.36-19.554 20.863-19.554z"></path><path d="M29.952 40.499c0-5.55 2.339-10.943 6.584-15.19 5.393-5.391 13.367-8.484 21.878-8.484 6.875 0 16.708 2.898 25.086 10.11a6.265 6.265 0 0 0 10.36-4.742c0-1.71-.698-3.277-1.808-4.407-.906-.922-1.95-1.735-2.98-2.528C77.429 6.29 64.278 5.594 60.524 5.594c-12.797 0-23.552 3.99-31.102 11.54-7.952 7.952-10.785 18.082-10.785 24.91 0 7.924 2.855 15.324 7.833 20.301 3.825 3.826 8.66 5.933 13.614 5.933 5.224 0 10.053-1.953 13.599-5.498a17.834 17.834 0 0 0 2.56-3.227c-1.86 1.189-4.151 1.808-6.737 1.808-10.782 0-19.554-9.359-19.554-20.862z"></path><path d="M40.084 70.45c-5.549 0-10.942-2.34-15.189-6.585-5.392-5.392-8.485-13.366-8.485-21.876 0-6.878 2.899-16.709 10.111-25.087a6.269 6.269 0 0 0 1.524-4.093 6.268 6.268 0 0 0-10.674-4.46c-.922.906-1.734 1.95-2.528 2.98-8.967 11.644-9.664 24.795-9.664 28.548 0 12.797 3.99 23.552 11.54 31.102 7.952 7.952 18.082 10.785 24.91 10.785 7.924 0 15.324-2.854 20.303-7.833 3.825-3.825 5.932-8.66 5.932-13.613 0-5.225-1.953-10.053-5.498-13.599a17.843 17.843 0 0 0-3.228-2.56c1.189 1.86 1.809 4.15 1.809 6.736 0 10.782-9.36 19.554-20.863 19.554z"></path></g><!----></svg>